<svg width="179" height="247" viewBox="0 0 179 247" fill="none" xmlns="http://www.w3.org/2000/svg">
<path d="M31.584 112.71C31.584 112.71 19.9115 9 93.5408 9C167.17 9 155.497 112.71 155.497 112.71" stroke="#8FB2D2" stroke-width="17.9584"/>
<path d="M24.1793 112.71C24.1793 112.71 12.5068 9 86.1361 9C159.765 9 148.092 112.71 148.092 112.71" stroke="#B6DBEE" stroke-width="17.9584"/>
<path d="M0.156898 107.322C0.156898 103.355 3.373 100.139 7.34026 100.139H159.089V246.5H7.34025C3.37299 246.5 0.156898 243.284 0.156898 239.317V107.322Z" fill="#FFC252"/>
<path d="M159.089 100.139H171.66C175.627 100.139 178.843 103.355 178.843 107.322V239.317C178.843 243.284 175.627 246.5 171.66 246.5H159.089V100.139Z" fill="#FFA85B"/>
<path fill-rule="evenodd" clip-rule="evenodd" d="M88.0914 175.841C87.3929 173.73 88.3858 171.466 90.1346 170.093C94.6931 166.514 97.6215 160.953 97.6215 154.708C97.6215 143.911 88.8688 135.158 78.0716 135.158C67.2745 135.158 58.5217 143.911 58.5217 154.708C58.5217 161.092 61.5822 166.762 66.316 170.33C68.1256 171.694 69.1697 173.997 68.4578 176.148L59.6093 202.887C58.6479 205.793 60.8113 208.787 63.8716 208.787H92.7794C95.8398 208.787 98.0032 205.793 97.0417 202.887L88.0914 175.841Z" fill="#4C596C"/>
<path fill-rule="evenodd" clip-rule="evenodd" d="M92.6615 175.841C91.963 173.73 92.9559 171.466 94.7047 170.093C99.2633 166.514 102.192 160.953 102.192 154.708C102.192 143.911 93.4389 135.158 82.6418 135.158C71.8446 135.158 63.0919 143.911 63.0919 154.708C63.0919 161.092 66.1523 166.762 70.8861 170.33C72.6958 171.694 73.7398 173.997 73.0279 176.148L64.1794 202.887C63.218 205.793 65.3814 208.787 68.4417 208.787H97.3496C100.41 208.787 102.573 205.793 101.612 202.887L92.6615 175.841Z" fill="#232337"/>
</svg>
